<?xml version="1.0" standalone="no"?>
<!DOCTYPE svg PUBLIC "-//W3C//DTD SVG 20010904//EN"
 "http://www.w3.org/TR/2001/REC-SVG-20010904/DTD/svg10.dtd">
<svg version="1.0" xmlns="http://www.w3.org/2000/svg"
 width="300.000000pt" height="300.000000pt" viewBox="0 0 300.000000 300.000000"
 preserveAspectRatio="xMidYMid meet">
<metadata>
Created by potrace 1.10, written by Peter Selinger 2001-2011
</metadata>
<g transform="translate(0.000000,300.000000) scale(0.100000,-0.100000)"
fill="#ffffff" stroke="none">
<path d="M1677 2984 c-1 -1 -87 -5 -192 -9 -104 -4 -192 -8 -195 -10 -3 -2
-86 -6 -185 -9 -218 -8 -348 -14 -565 -26 -91 -6 -208 -12 -260 -14 -52 -2
-107 -9 -122 -15 -16 -6 -44 -37 -72 -81 -98 -150 -98 -152 -16 -495 41 -172
102 -443 111 -490 17 -96 48 -242 93 -435 25 -107 59 -256 76 -330 17 -74 35
-151 40 -170 5 -19 32 -141 60 -270 104 -476 149 -630 188 -630 14 0 14 2 0
18 -38 43 -70 163 -207 778 -44 199 -89 397 -100 440 -24 96 -76 325 -131 579
-80 371 -151 689 -171 759 -15 54 -4 112 34 176 l32 55 3 -35 c2 -19 14 -82
28 -139 14 -56 34 -144 45 -195 11 -50 21 -98 23 -106 14 -55 65 -276 102
-445 24 -110 48 -213 54 -230 5 -16 14 -55 19 -85 6 -30 38 -172 71 -315 64
-275 159 -688 175 -765 2 -8 10 -42 18 -75 8 -33 22 -95 32 -138 11 -48 28
-92 46 -117 l29 -39 -30 -55 c-17 -30 -30 -57 -30 -61 0 -18 28 19 49 64 23
47 25 49 52 39 28 -10 125 -4 389 22 52 5 122 12 155 15 33 3 98 10 145 15 47
5 123 12 170 16 47 3 87 7 90 9 3 2 46 6 95 10 50 3 104 8 120 10 17 2 82 9
145 15 63 5 158 15 210 20 52 5 118 12 145 14 28 3 97 9 155 15 58 6 132 13
165 16 93 8 127 16 164 36 41 24 39 14 -15 -67 -43 -64 -87 -104 -117 -104
-12 0 -83 -7 -157 -15 -210 -22 -333 -33 -485 -45 -77 -6 -187 -17 -245 -25
-87 -12 -410 -44 -590 -59 -25 -2 23 -2 105 0 83 2 188 8 235 14 47 5 121 12
165 16 44 3 82 8 85 9 10 6 198 25 385 40 195 15 456 41 511 50 83 14 185 180
186 302 0 46 -54 226 -163 543 -16 47 -47 141 -68 210 -22 69 -62 197 -91 285
-28 88 -67 216 -87 285 -62 221 -78 273 -315 1025 -68 216 -53 208 -360 204
-126 -2 -230 -4 -231 -5z m501 -39 c33 -34 48 -74 126 -330 30 -99 73 -238 95
-309 22 -72 39 -131 38 -132 -1 -1 -65 -5 -142 -8 -77 -4 -174 -9 -215 -11
-41 -2 -140 -7 -220 -10 -80 -3 -170 -8 -200 -10 -30 -2 -127 -7 -215 -10 -88
-3 -194 -8 -235 -10 -41 -3 -169 -9 -285 -15 -116 -5 -255 -12 -310 -15 -55
-3 -154 -8 -220 -11 l-120 -6 -44 194 c-24 106 -47 209 -52 228 -50 204 -69
290 -69 313 0 15 12 40 28 58 l28 32 325 17 c178 10 410 21 514 24 105 4 251
11 325 16 74 5 225 12 335 16 110 3 201 7 202 8 1 0 65 1 142 1 l141 0 28 -30z
m324 -965 c27 -91 67 -228 89 -305 43 -150 58 -198 255 -799 70 -213 129 -407
131 -430 2 -22 -2 -52 -9 -65 -28 -53 -56 -59 -384 -91 -170 -17 -329 -32
-354 -35 -25 -2 -72 -7 -105 -10 -33 -3 -100 -10 -150 -15 -49 -5 -126 -12
-170 -16 -44 -3 -87 -7 -95 -9 -8 -1 -55 -6 -105 -10 -49 -4 -97 -8 -105 -10
-8 -2 -53 -6 -100 -10 -47 -3 -92 -8 -100 -10 -8 -2 -53 -6 -100 -10 -47 -4
-98 -8 -115 -10 -176 -21 -287 -27 -310 -17 -56 26 -79 90 -160 456 -14 61
-38 167 -54 236 -16 69 -75 325 -130 570 -56 245 -113 492 -126 549 -14 58
-23 106 -22 107 4 4 174 13 422 24 132 5 278 12 325 15 116 7 261 14 413 20
310 13 384 16 417 20 19 3 118 7 220 11 102 3 186 7 187 8 1 1 43 2 94 1 l92
0 49 -165z"/>
<path d="M1910 2859 c-41 -3 -128 -7 -192 -8 -107 -1 -118 -3 -132 -22 -12
-18 -13 -27 -2 -53 20 -51 40 -54 253 -45 106 4 197 10 203 14 15 9 12 58 -6
83 -23 33 -42 38 -124 31z m0 -59 l-42 -50 -80 0 -81 0 35 43 35 42 84 6 c46
3 86 6 87 7 2 1 -15 -20 -38 -48z m90 40 c10 -5 23 -24 29 -42 15 -41 4 -48
-77 -48 l-63 0 42 50 c47 56 43 54 69 40z m-285 -54 c-44 -54 -73 -59 -105
-19 -36 46 -24 57 60 63 41 3 77 4 79 3 2 -1 -14 -22 -34 -47z"/>
<path d="M2017 2644 c-1 -1 -121 -5 -267 -8 -146 -4 -301 -9 -345 -11 -44 -2
-150 -7 -235 -10 -195 -6 -386 -15 -470 -20 -36 -2 -117 -7 -180 -11 -63 -4
-116 -7 -117 -8 -6 -5 72 -368 87 -403 7 -16 16 -21 37 -18 178 21 351 32 618
41 99 3 196 7 215 9 19 2 134 7 255 10 121 4 247 8 280 10 32 2 115 5 182 6
68 2 123 6 123 9 0 3 -11 44 -24 90 -13 47 -38 138 -56 202 l-33 118 -34 -3
c-19 -1 -35 -3 -36 -3z m47 -71 c16 -53 86 -309 86 -315 0 -3 -60 -7 -132 -8
-73 -1 -151 -3 -173 -5 -22 -2 -123 -6 -225 -10 -102 -4 -203 -8 -225 -10 -22
-2 -117 -6 -210 -9 -213 -9 -451 -23 -575 -36 -52 -5 -98 -6 -101 -2 -11 12
-85 340 -78 346 2 2 305 15 674 30 369 15 688 28 710 30 22 1 86 3 142 4 89 2
102 0 107 -15z"/>
<path d="M2086 2058 c-122 -7 -131 -9 -158 -35 -15 -15 -28 -34 -28 -42 0 -9
-9 -2 -19 15 -11 18 -24 35 -29 38 -12 7 -310 -10 -334 -19 -10 -4 -27 -23
-39 -42 l-22 -35 -13 30 c-7 17 -22 33 -34 37 -22 7 -211 -1 -290 -12 -50 -7
-100 -50 -100 -87 0 -28 37 -171 50 -196 9 -17 21 -20 79 -20 38 0 115 5 172
10 112 12 149 28 159 71 6 23 6 23 14 -6 4 -16 12 -36 18 -42 13 -16 84 -16
237 -2 130 12 164 27 170 75 l3 29 12 -34 c16 -50 46 -55 229 -37 142 15 153
17 175 42 24 27 24 64 1 159 -28 113 -33 115 -253 103z m194 -18 c36 -19 75
-205 48 -228 -18 -14 -141 -27 -263 -27 l-90 0 -22 65 c-26 76 -30 152 -8 170
13 11 114 22 258 28 31 2 66 -2 77 -8z m-428 -32 c10 -7 24 -40 32 -73 26
-107 28 -132 12 -147 -23 -24 -323 -49 -353 -30 -13 8 -39 96 -48 162 -11 79
22 92 255 98 57 2 91 -1 102 -10z m-433 -32 c15 -18 38 -98 46 -162 6 -47 5
-51 -19 -62 -32 -14 -283 -37 -317 -29 -31 8 -45 37 -65 130 -13 62 -13 73 1
93 21 33 54 38 251 42 67 2 95 -2 103 -12z"/>
<path d="M2105 1960 c4 -6 11 -8 16 -5 14 9 11 15 -7 15 -8 0 -12 -5 -9 -10z"/>
<path d="M2115 1933 c-79 -4 -116 -23 -44 -23 70 0 149 12 143 21 -3 5 -11 8
-17 7 -7 -1 -43 -4 -82 -5z"/>
<path d="M2120 1870 c0 -5 5 -10 10 -10 6 0 10 5 10 10 0 6 -4 10 -10 10 -5 0
-10 -4 -10 -10z"/>
<path d="M1696 1890 c-32 -44 -56 -85 -54 -91 2 -6 22 15 43 46 62 89 78 116
73 121 -3 2 -31 -32 -62 -76z"/>
<path d="M1646 1931 c-4 -5 -2 -12 3 -15 5 -4 12 -2 15 3 4 5 2 12 -3 15 -5 4
-12 2 -15 -3z"/>
<path d="M1750 1830 c0 -5 5 -10 10 -10 6 0 10 5 10 10 0 6 -4 10 -10 10 -5 0
-10 -4 -10 -10z"/>
<path d="M1276 1898 c-35 -55 -66 -113 -66 -123 0 -17 18 0 35 33 11 20 34 61
52 90 18 28 28 52 23 52 -6 0 -25 -24 -44 -52z"/>
<path d="M1164 1925 c3 -10 -1 -15 -14 -15 -10 0 -22 -4 -25 -10 -3 -6 5 -10
18 -10 18 0 27 -7 31 -25 9 -37 29 -32 21 5 -6 27 -4 30 19 30 14 0 26 4 26
10 0 5 -13 7 -30 4 -23 -5 -30 -3 -30 10 0 9 -5 16 -11 16 -6 0 -9 -7 -5 -15z"/>
<path d="M1345 1852 c-58 -5 -69 -22 -14 -22 42 0 81 13 63 21 -5 3 -27 3 -49
1z"/>
<path d="M808 1975 c-2 -2 -35 -5 -73 -6 -39 -1 -83 -7 -98 -12 -31 -10 -80
-76 -73 -98 2 -8 12 -49 22 -91 20 -92 40 -118 91 -118 l37 0 -33 -34 c-32
-33 -34 -38 -28 -88 8 -65 34 -147 55 -170 19 -22 52 -22 230 -3 135 14 158
22 172 61 11 28 -21 194 -44 229 -18 27 -19 27 -104 22 -75 -5 -79 -4 -34 4
110 19 119 42 82 217 -17 77 -37 92 -126 91 -40 -1 -74 -2 -76 -4z m166 -37
c17 -27 50 -183 43 -202 -7 -17 -101 -34 -242 -42 -128 -8 -127 -8 -149 82
-28 113 -28 119 -7 145 21 27 73 34 248 37 86 2 94 0 107 -20z m75 -297 c14
-9 51 -148 51 -194 0 -40 -7 -42 -246 -63 -110 -10 -120 -5 -144 72 -38 125
-24 179 50 186 86 8 276 8 289 -1z"/>
<path d="M790 1897 c-30 -15 -54 -60 -45 -86 14 -44 120 -61 133 -22 3 9 0 11
-7 6 -19 -11 -80 -8 -96 5 -8 7 -15 19 -15 27 0 23 48 65 73 63 35 -3 43 0 27
10 -20 13 -40 12 -70 -3z"/>
<path d="M838 1582 c-39 -8 -15 -17 37 -14 30 2 55 2 55 -1 0 -2 -11 -30 -25
-61 -28 -63 -29 -66 -17 -66 9 0 62 122 62 141 0 9 -70 10 -112 1z"/>
<path d="M2111 1730 c-68 -6 -77 -9 -106 -41 l-32 -35 -17 29 -17 30 -142 -6
c-187 -8 -204 -12 -230 -53 -26 -40 -33 -42 -41 -9 -9 34 -35 39 -203 32 -152
-5 -176 -12 -208 -61 -14 -21 -14 -32 5 -116 11 -51 25 -100 30 -110 16 -29
56 -32 220 -15 154 15 190 27 190 62 0 23 18 14 24 -12 8 -32 48 -48 96 -40
l35 6 -32 -20 c-17 -11 -37 -30 -44 -43 l-12 -23 -10 28 c-12 37 -36 41 -193
33 -142 -7 -175 -15 -211 -48 -28 -27 -29 -47 -2 -154 31 -122 29 -121 228
-101 167 16 197 24 211 60 8 21 9 20 20 -10 9 -26 18 -33 50 -38 22 -4 44 -4
50 0 20 12 10 -3 -24 -37 l-33 -33 -16 27 c-16 27 -19 28 -99 28 -151 -1 -258
-16 -285 -42 -42 -39 -45 -52 -28 -125 26 -118 43 -153 72 -153 55 0 14 -7
-67 -12 -47 -3 -75 -4 -64 -1 12 2 32 15 45 29 l23 25 -18 92 c-23 114 -33
136 -64 144 -13 3 -84 3 -156 0 -238 -9 -266 -44 -205 -244 24 -76 32 -80 165
-67 76 7 94 7 94 -4 0 -7 3 -11 8 -8 4 2 54 7 112 11 58 3 146 10 195 15 161
16 263 15 284 -4 25 -23 53 -130 49 -186 -4 -56 -22 -66 -133 -73 -44 -3 -189
-17 -323 -32 -134 -15 -254 -24 -266 -21 -25 6 -36 28 -60 116 -22 82 -27 123
-17 139 5 8 40 20 78 27 l68 13 -69 -4 c-58 -4 -74 -9 -98 -32 -22 -21 -28
-36 -28 -68 0 -47 35 -180 56 -212 18 -28 54 -29 246 -8 73 8 213 21 310 29
194 16 228 27 248 76 25 59 -10 225 -53 255 -12 8 -42 16 -67 16 l-45 2 47 6
c49 7 88 33 88 60 1 9 7 2 15 -16 10 -25 22 -33 50 -39 l36 -6 -23 -25 c-17
-18 -23 -36 -22 -67 1 -49 32 -185 47 -203 16 -21 320 -10 380 13 31 11 41 90
21 157 -3 9 -3 17 0 17 2 0 14 -29 25 -63 38 -114 53 -120 244 -92 205 31 217
45 181 221 -39 195 -91 348 -129 384 -22 21 -25 21 -161 10 -189 -16 -205 -20
-230 -58 l-22 -32 -12 30 c-14 35 -30 41 -99 39 -28 -1 -54 1 -58 4 -3 4 9 7
29 7 40 0 78 33 79 71 0 18 4 14 16 -18 12 -35 20 -43 46 -48 53 -10 325 21
354 40 24 16 25 20 19 76 -9 77 -32 151 -55 180 l-18 23 -163 -10 -163 -11
-31 -34 -32 -34 -14 30 c-15 30 -16 30 -92 30 -42 0 -74 3 -72 7 3 4 20 8 37
8 44 0 77 25 77 58 1 26 1 26 18 -8 16 -33 20 -35 72 -38 30 -1 113 4 183 11
162 18 172 25 163 113 -8 76 -32 158 -52 179 -17 16 -127 19 -273 5z m286 -80
c14 -41 22 -84 20 -115 -2 -48 -3 -49 -37 -56 -75 -16 -267 -32 -293 -25 -34
8 -52 46 -69 146 -11 62 -10 72 4 87 24 23 76 30 223 29 l130 -1 22 -65z
m-448 21 c6 -10 18 -57 27 -104 19 -98 15 -111 -39 -121 -72 -13 -254 -26
-285 -20 -38 7 -44 19 -65 121 -16 78 -7 121 26 128 12 2 31 6 42 8 11 3 79 5
152 6 119 1 133 -1 142 -18z m-450 -20 c18 -18 51 -136 51 -184 0 -41 -10 -45
-160 -62 -74 -8 -164 -8 -187 -1 -17 5 -28 24 -43 73 -33 107 -23 170 28 174
9 1 69 5 132 9 63 3 125 7 138 8 12 1 31 -7 41 -17z m328 -257 c-3 -3 -12 -4
-19 -1 -8 3 -5 6 6 6 11 1 17 -2 13 -5z m636 -9 c27 -27 58 -207 38 -219 -6
-4 -76 -15 -155 -24 -167 -19 -188 -14 -213 45 -8 21 -20 66 -26 101 -13 82
-2 95 91 103 140 12 250 10 265 -6z m-426 -24 c7 -11 20 -59 29 -106 15 -77
16 -88 2 -101 -10 -10 -59 -20 -144 -30 -128 -15 -198 -14 -214 2 -13 14 -40
128 -40 170 0 22 4 45 9 53 13 21 71 29 216 30 119 1 131 -1 142 -18z m-448
-16 c14 -8 38 -90 46 -157 5 -41 3 -57 -8 -66 -19 -16 -273 -43 -317 -34 -42
9 -57 36 -73 126 -13 74 -5 112 26 122 23 8 230 20 284 18 18 -1 37 -5 42 -9z
m994 -306 c33 -66 107 -354 107 -417 0 -49 -12 -57 -102 -67 -29 -3 -71 -10
-93 -15 -53 -13 -122 -12 -145 0 -18 10 -51 85 -69 158 -5 20 -24 87 -41 147
-18 61 -35 132 -40 158 -7 44 -5 50 16 64 28 18 139 31 254 29 l85 -1 28 -56z
m-630 44 c-13 -2 -33 -2 -45 0 -13 2 -3 4 22 4 25 0 35 -2 23 -4z m171 -35 c8
-13 22 -61 30 -107 14 -70 14 -87 3 -98 -23 -24 -314 -51 -348 -32 -21 11 -44
81 -54 161 -11 85 13 95 227 97 122 1 128 0 142 -21z m-445 -22 c14 -17 37
-96 45 -157 10 -67 4 -70 -197 -89 -141 -13 -163 -7 -181 44 -8 22 -20 67 -26
99 -10 49 -9 62 4 82 18 28 38 31 217 33 97 2 129 -1 138 -12z m-443 -62 c8
-18 19 -64 26 -103 17 -98 16 -99 -140 -116 -77 -9 -196 -10 -210 -1 -15 9
-52 135 -52 178 0 62 20 70 183 77 78 3 150 4 161 2 10 -2 24 -19 32 -37z
m980 -199 c7 -18 7 -18 -14 1 -18 17 -33 20 -75 18 -44 -3 -47 -2 -19 5 44 12
72 38 73 70 0 17 5 9 14 -24 7 -27 16 -59 21 -70z m-22 -14 c10 -11 24 -58 34
-110 14 -80 14 -93 1 -105 -15 -16 -244 -40 -314 -34 -40 3 -40 4 -62 68 -27
78 -30 152 -7 171 18 15 111 26 240 28 78 1 93 -2 108 -18z m-1041 -38 c-7 -2
-19 -2 -25 0 -7 3 -2 5 12 5 14 0 19 -2 13 -5z"/>
<path d="M2241 1646 l-23 -24 -34 20 c-19 11 -34 15 -34 9 0 -6 10 -16 23 -22
12 -6 24 -13 26 -15 3 -3 -8 -18 -24 -34 -16 -16 -25 -33 -21 -37 4 -5 21 7
36 25 l28 34 40 -26 c23 -14 44 -21 47 -16 3 5 -13 19 -36 30 l-41 22 28 29
c15 16 23 29 18 29 -6 0 -21 -11 -33 -24z"/>
<path d="M1753 1663 c-28 -5 -43 -50 -22 -64 8 -5 33 -8 57 -7 37 3 42 1 42
-17 0 -40 -50 -61 -78 -33 -6 6 -15 8 -19 4 -15 -14 31 -37 62 -31 39 7 46 15
52 64 4 28 1 48 -11 66 -16 24 -32 28 -83 18z m73 -24 c9 -15 -8 -30 -42 -33
-37 -5 -59 11 -43 30 14 17 75 19 85 3z"/>
<path d="M1302 1630 c-28 -12 -38 -36 -23 -54 8 -9 8 -22 2 -39 -14 -35 8 -51
67 -48 31 1 53 8 66 21 19 19 19 20 2 39 -11 12 -15 27 -11 39 12 38 -50 63
-103 42z m78 -20 c21 -13 2 -29 -43 -37 -29 -4 -38 -2 -43 12 -12 30 50 48 86
25z m20 -65 c20 -24 0 -37 -57 -39 -41 -1 -48 2 -48 19 0 31 83 47 105 20z"/>
<path d="M2282 1303 c-23 -2 -40 -8 -38 -12 7 -10 138 -2 151 10 9 9 -26 10
-113 2z"/>
<path d="M1845 1310 c-34 -37 -18 -92 33 -111 31 -12 53 -5 69 20 10 16 9 24
-6 42 l-18 22 -20 -20 c-11 -11 -23 -27 -26 -34 -5 -11 -9 -10 -21 5 -9 11
-16 26 -16 33 0 18 39 55 50 48 5 -3 11 -1 15 5 12 19 -42 10 -60 -10z m88
-64 c5 -14 -10 -36 -25 -36 -4 0 -8 8 -8 18 0 31 23 44 33 18z"/>
<path d="M1425 1290 c-31 -3 -50 -10 -49 -17 5 -60 14 -68 58 -52 27 10 39 10
48 1 20 -20 -10 -42 -58 -42 -24 0 -44 -4 -44 -10 0 -5 22 -10 49 -10 40 0 53
4 65 22 14 19 14 25 2 43 -14 20 -26 22 -70 11 -18 -4 -25 -1 -29 14 -4 17 0
20 31 21 21 0 46 4 56 8 30 12 0 17 -59 11z"/>
<path d="M2428 935 c-3 -4 -1 -27 7 -51 l13 -44 -48 0 c-27 0 -52 -5 -56 -12
-5 -8 8 -10 48 -5 l55 5 13 -54 c7 -30 17 -54 23 -54 5 0 7 10 4 23 -21 90
-23 84 32 91 74 10 75 27 2 19 -55 -5 -61 -4 -61 13 -1 27 -24 77 -32 69z"/>
<path d="M1930 1030 c-23 -14 -6 -22 25 -10 23 9 32 8 44 -5 14 -14 14 -17 1
-25 -8 -5 -23 -10 -32 -10 -35 0 -26 -18 13 -24 31 -5 40 -10 37 -24 -2 -11
-14 -18 -33 -20 -43 -5 -56 -22 -16 -22 61 0 93 39 57 69 -8 7 -12 21 -9 31
11 40 -46 66 -87 40z"/>
<path d="M1499 991 c-13 -11 -21 -23 -16 -27 4 -4 13 1 21 11 9 13 20 16 39
11 40 -10 36 -42 -7 -56 -35 -11 -46 -26 -46 -62 0 -18 4 -20 31 -14 17 3 44
6 60 6 16 0 29 5 29 10 0 7 -18 8 -50 4 -42 -6 -50 -4 -50 10 0 9 17 24 38 33
56 27 55 69 -4 87 -14 4 -30 0 -45 -13z"/>
<path d="M1049 953 c-12 -15 -12 -16 2 -11 13 5 18 -2 23 -32 3 -21 9 -45 12
-54 4 -11 0 -16 -14 -16 -12 0 -24 -5 -28 -12 -5 -8 2 -9 26 -5 18 4 41 7 51
7 11 0 19 5 19 11 0 6 -9 9 -20 6 -16 -4 -20 2 -25 42 -12 86 -20 97 -46 64z"/>
<path d="M2002 683 c-18 -2 -30 -8 -27 -13 3 -4 19 -6 37 -4 18 3 50 6 70 7
21 2 41 6 44 10 8 7 -65 7 -124 0z"/>
<path d="M2057 619 c-79 -9 -100 -19 -40 -19 63 0 133 12 127 21 -3 5 -8 8
-12 8 -4 -1 -38 -5 -75 -10z"/>
<path d="M930 1337 c-117 -7 -127 -9 -160 -36 -32 -26 -35 -34 -35 -78 1 -62
32 -167 57 -190 18 -16 30 -16 188 -2 153 14 172 17 195 39 14 13 25 34 25 47
0 42 -31 175 -46 198 -19 29 -57 33 -224 22z m198 -24 c25 -20 52 -116 52
-179 0 -33 -4 -44 -19 -49 -34 -11 -275 -30 -311 -25 -32 5 -36 9 -52 57 -9
29 -19 76 -23 105 -10 76 9 90 118 95 45 3 86 5 90 6 5 1 34 3 66 5 44 2 63
-2 79 -15z"/>
<path d="M939 1248 c-7 -71 -7 -71 41 -72 28 -1 45 -6 46 -13 1 -7 2 -20 3
-28 0 -8 6 -15 12 -15 11 0 7 31 -13 103 -14 46 -29 49 -21 4 5 -32 4 -34 -27
-35 -31 -1 -32 0 -27 34 3 19 2 34 -4 34 -5 0 -10 -6 -10 -12z"/>
<path d="M1295 638 c-66 -23 -98 -85 -56 -108 31 -16 148 -12 187 6 34 16 53
52 39 74 -21 34 -111 49 -170 28z m124 -19 c24 -9 31 -16 29 -33 -4 -30 -53
-49 -124 -50 -71 -1 -100 15 -83 46 22 41 112 60 178 37z"/>
</g>
</svg>
